<svg viewBox="0 0 90 90" fill="none" role="img" xmlns="http://www.w3.org/2000/svg" width="96" height="96"><mask id="_R_0_" maskUnits="userSpaceOnUse" x="0" y="0" width="90" height="90"><rect width="90" height="90" rx="180" fill="#FFFFFF"></rect></mask><g mask="url(#_R_0_)"><path d="M0 0h90v45H0z" fill="#264653"></path><path d="M0 45h90v45H0z" fill="#2A9D8F"></path><path d="M83 45a38 38 0 00-76 0h76z" fill="#2A9D8F"></path><path d="M83 45a38 38 0 01-76 0h76z" fill="#E9C46A"></path><path d="M77 45a32 32 0 10-64 0h64z" fill="#E9C46A"></path><path d="M77 45a32 32 0 11-64 0h64z" fill="#F4A261"></path><path d="M71 45a26 26 0 00-52 0h52z" fill="#F4A261"></path><path d="M71 45a26 26 0 01-52 0h52z" fill="#264653"></path><circle cx="45" cy="45" r="23" fill="#E76F51"></circle></g></svg>